<svg width="2000" height="2000" version="1.1" xmlns="http://www.w3.org/2000/svg" desc="Created with imagetracer.js version 1.2.6" ><path fill="rgb(0,0,0)" stroke="rgb(0,0,0)" stroke-width="1" opacity="0" d="M 0 0 L 2000 0 L 2000 2000 L 0 2000 L 0 0 Z M 436 565 L 432 567 L 429 574 L 429 590 L 428 591 L 428 621 L 429 622 L 428 624 L 429 627 L 429 629 L 428 632 L 429 635 L 429 637 Q 426 640 428 649 L 428 651 L 429 653 L 428 655 L 429 657 L 429 944 L 428 945 L 429 948 L 429 950 L 428 952 L 429 954 L 428 956 L 428 1008 L 429 1009 L 428 1012 L 428 1014 L 429 1017 L 428 1019 L 429 1021 L 428 1023 L 429 1026 L 429 1028 L 428 1030 L 429 1032 L 428 1034 L 429 1036 L 428 1038 L 429 1040 L 428 1047 L 428 1049 L 428 1102 L 429 1103 L 428 1106 L 428 1108 L 429 1112 L 429 1114 L 428 1117 L 429 1118 L 429 1264 L 430 1266 L 437 1268 L 454 1268 L 455 1267 L 740 1267 L 741 1268 L 754 1268 L 756 1268 L 769 1268 L 770 1267 L 1558 1267 L 1559 1268 L 1568 1267 L 1571 1263 L 1571 570 L 1569 566 L 1567 565 L 1543 565 L 1532 567 L 1482 567 L 1481 566 L 1437 566 L 1436 567 L 456 567 L 447 565 L 436 565 Z M 667 1334 L 664 1337 L 664 1352 L 663 1353 Q 662 1357 664 1359 L 663 1362 L 664 1367 L 664 1379 L 663 1380 L 664 1384 L 663 1421 L 670 1425 L 683 1425 L 686 1421 L 686 1400 L 702 1400 L 704 1401 L 706 1405 Q 705 1408 708 1407 L 710 1411 Q 709 1414 712 1413 L 716 1420 Q 715 1422 718 1421 L 718 1423 L 724 1425 L 736 1425 L 740 1422 Q 740 1416 737 1415 Q 738 1412 735 1413 L 733 1408 L 729 1405 L 725 1398 L 725 1394 Q 728 1395 727 1392 L 733 1389 Q 732 1385 735 1386 L 735 1383 L 739 1376 L 739 1360 L 731 1345 L 717 1337 L 710 1337 L 703 1335 L 668 1335 L 667 1334 Z M 778 1334 Q 773 1336 774 1344 L 774 1346 Q 773 1351 775 1353 L 775 1362 L 774 1363 L 775 1375 L 776 1376 L 775 1404 L 774 1405 L 774 1414 L 776 1423 L 780 1425 L 809 1425 L 810 1424 L 819 1424 L 820 1425 L 840 1425 L 843 1423 L 845 1416 Q 847 1406 842 1404 L 819 1405 L 818 1406 Q 805 1408 798 1404 L 798 1392 L 800 1390 L 832 1390 L 833 1391 L 836 1390 L 837 1389 L 837 1375 L 838 1374 Q 839 1368 836 1367 L 831 1368 Q 825 1369 824 1366 L 825 1363 L 822 1362 L 822 1364 Q 823 1366 820 1365 L 820 1362 L 819 1366 L 812 1369 L 798 1369 L 798 1360 L 799 1358 L 803 1355 Q 809 1353 811 1356 L 839 1355 L 843 1351 L 844 1338 L 840 1334 L 792 1335 L 791 1336 L 778 1334 Z M 932 1334 L 931 1335 L 895 1335 L 894 1336 L 884 1335 L 881 1340 L 882 1342 L 882 1419 L 881 1422 L 887 1425 L 913 1425 L 914 1424 L 924 1424 L 925 1425 L 945 1425 L 948 1423 L 949 1420 L 948 1417 L 949 1408 L 947 1405 L 904 1405 L 903 1403 Q 902 1398 904 1397 L 903 1391 L 906 1390 L 939 1390 L 944 1383 L 943 1378 L 944 1372 L 941 1369 L 930 1369 L 929 1368 L 926 1368 L 926 1362 L 923 1362 L 923 1365 L 920 1369 L 906 1369 L 905 1368 L 903 1368 L 903 1358 L 909 1360 L 910 1356 L 933 1356 L 934 1355 L 944 1355 L 945 1354 Q 947 1355 946 1352 L 948 1352 L 947 1348 Q 945 1341 948 1340 L 946 1335 L 943 1334 L 941 1335 L 932 1334 Z M 978 1334 L 976 1336 L 976 1354 L 979 1355 L 995 1355 L 1001 1356 L 999 1363 Q 998 1367 1001 1369 Q 996 1371 1002 1374 L 1002 1401 L 1001 1403 L 1001 1405 L 1002 1421 L 1003 1423 L 1008 1425 L 1022 1425 L 1024 1422 L 1024 1358 L 1027 1355 L 1049 1355 L 1053 1350 Q 1054 1345 1052 1344 L 1053 1341 L 1052 1337 L 1051 1335 L 1024 1335 L 1023 1334 L 1021 1335 L 989 1335 L 988 1336 L 978 1334 Z M 1205 1334 L 1204 1335 L 1192 1335 Q 1192 1338 1189 1337 Q 1190 1342 1187 1344 Q 1189 1350 1185 1349 L 1185 1353 L 1183 1355 Q 1184 1360 1181 1362 L 1181 1366 L 1177 1374 L 1177 1378 L 1172 1388 L 1165 1378 Q 1166 1372 1163 1371 L 1163 1366 L 1157 1353 L 1157 1348 L 1155 1346 L 1155 1341 Q 1152 1339 1153 1336 L 1151 1335 L 1134 1335 L 1132 1339 L 1132 1345 L 1126 1357 L 1126 1362 L 1122 1371 L 1122 1374 Q 1119 1375 1119 1381 L 1115 1386 L 1110 1380 L 1110 1375 L 1106 1368 L 1106 1363 L 1102 1355 L 1101 1346 L 1098 1339 L 1094 1335 L 1078 1335 L 1077 1338 L 1078 1351 L 1081 1357 L 1081 1360 L 1085 1366 Q 1084 1371 1087 1373 L 1087 1378 L 1093 1390 Q 1092 1395 1095 1396 L 1095 1402 L 1097 1404 Q 1096 1408 1099 1407 L 1103 1423 L 1107 1425 L 1122 1425 L 1124 1423 Q 1123 1420 1126 1421 L 1126 1417 L 1130 1411 L 1130 1407 L 1134 1399 L 1134 1394 L 1140 1383 L 1142 1376 L 1144 1375 Q 1143 1377 1146 1376 L 1159 1421 L 1162 1423 L 1168 1425 L 1179 1425 L 1182 1423 L 1187 1411 L 1190 1397 L 1194 1390 L 1194 1385 L 1196 1383 Q 1195 1375 1198 1376 Q 1197 1372 1200 1370 Q 1199 1365 1202 1366 L 1204 1355 L 1211 1341 L 1211 1337 Q 1210 1333 1205 1334 Z M 1378 1334 L 1374 1338 L 1369 1348 L 1368 1353 L 1361 1367 L 1361 1370 L 1359 1372 L 1359 1375 L 1351 1390 Q 1353 1395 1349 1394 L 1341 1413 L 1337 1417 L 1337 1422 L 1339 1425 L 1356 1425 L 1359 1423 L 1360 1419 L 1368 1405 L 1402 1405 L 1404 1406 L 1406 1415 L 1411 1423 L 1417 1425 L 1427 1425 Q 1428 1422 1432 1423 L 1433 1421 L 1429 1412 L 1429 1408 L 1425 1404 L 1419 1389 L 1417 1387 Q 1418 1383 1415 1384 L 1415 1381 L 1407 1366 L 1397 1339 L 1393 1335 L 1378 1334 Z M 486 1335 L 479 1337 L 474 1341 Q 471 1340 472 1343 L 470 1343 L 470 1345 L 468 1345 L 468 1347 L 466 1347 L 464 1351 Q 465 1354 462 1353 L 462 1371 L 468 1379 Q 467 1381 470 1380 L 470 1382 L 492 1391 Q 491 1393 486 1392 L 485 1395 Q 486 1401 484 1400 L 482 1404 L 478 1402 L 474 1397 L 464 1398 L 462 1402 L 462 1406 L 460 1408 Q 459 1414 462 1416 L 462 1417 L 466 1417 L 466 1419 L 470 1421 Q 475 1420 476 1423 L 481 1423 L 484 1425 L 508 1425 L 516 1421 L 519 1421 L 521 1419 Q 523 1420 522 1417 L 524 1417 L 524 1415 L 526 1415 L 526 1413 L 528 1413 L 532 1403 L 532 1394 Q 529 1392 530 1387 L 524 1380 Q 521 1381 522 1378 L 487 1366 L 484 1363 L 485 1359 L 493 1354 L 504 1354 L 518 1360 L 524 1359 Q 523 1353 526 1351 Q 525 1348 528 1349 Q 530 1343 526 1341 Q 523 1342 524 1340 L 521 1337 Q 513 1338 511 1335 L 486 1335 Z M 558 1335 L 554 1339 Q 553 1348 556 1353 L 560 1355 L 582 1355 L 584 1356 L 583 1359 L 584 1361 L 584 1377 L 583 1378 Q 582 1382 584 1384 L 584 1407 L 585 1408 Q 587 1414 584 1416 L 585 1417 L 585 1423 L 592 1425 L 595 1424 L 602 1425 L 604 1423 L 604 1408 L 605 1407 L 604 1405 L 604 1372 L 604 1370 L 604 1359 L 605 1357 L 607 1355 L 629 1355 L 632 1353 L 633 1351 L 633 1338 L 631 1335 L 558 1335 Z M 1246 1335 L 1243 1338 L 1243 1355 L 1244 1356 L 1244 1393 L 1243 1394 Q 1242 1398 1244 1400 L 1243 1421 L 1249 1425 L 1308 1425 L 1312 1422 L 1312 1407 L 1311 1405 L 1284 1405 L 1283 1406 L 1268 1405 Q 1263 1400 1265 1390 L 1269 1389 L 1303 1390 L 1305 1388 L 1306 1371 L 1303 1368 L 1296 1370 L 1293 1369 L 1288 1370 Q 1274 1371 1266 1369 L 1265 1359 L 1271 1355 L 1306 1355 L 1308 1354 L 1311 1351 L 1311 1337 L 1310 1335 L 1246 1335 Z M 1464 1335 L 1461 1339 L 1461 1350 L 1460 1351 Q 1459 1357 1462 1360 L 1462 1382 L 1461 1383 L 1462 1386 L 1462 1421 L 1463 1423 L 1468 1425 L 1481 1425 L 1483 1424 L 1486 1418 L 1485 1414 Q 1484 1404 1486 1400 L 1501 1400 L 1507 1407 Q 1506 1410 1509 1409 Q 1508 1412 1511 1414 Q 1510 1416 1513 1415 L 1513 1417 L 1515 1417 L 1515 1421 Q 1518 1420 1517 1423 L 1521 1425 Q 1525 1426 1527 1424 L 1532 1425 L 1535 1425 L 1538 1423 L 1539 1421 L 1538 1414 L 1534 1412 Q 1535 1409 1532 1410 L 1532 1408 Q 1526 1404 1524 1396 Q 1523 1393 1526 1394 L 1534 1385 Q 1533 1381 1536 1382 L 1538 1377 L 1538 1362 Q 1535 1360 1536 1355 L 1534 1353 Q 1535 1350 1532 1351 Q 1533 1348 1530 1347 Q 1531 1344 1528 1345 L 1528 1343 L 1526 1343 L 1521 1339 L 1517 1339 L 1515 1337 L 1505 1337 L 1495 1335 L 1464 1335 Z M 909 1361 Q 907 1364 910 1363 L 909 1361 Z M 932 1361 L 932 1364 L 937 1363 L 932 1361 Z M 816 1394 L 815 1399 L 817 1398 L 816 1394 Z M 924 1395 Q 921 1396 922 1400 L 919 1402 L 922 1403 L 928 1402 L 927 1400 Q 924 1401 925 1399 L 925 1397 Q 926 1394 924 1395 Z M 815 1401 L 815 1402 L 821 1402 L 815 1401 Z " /><path fill="rgb(0,0,0)" stroke="rgb(0,0,0)" stroke-width="1" opacity="0" d="M 690.5 1355 L 693 1356.5 L 690 1357 L 690.5 1355 Z " /><path fill="rgb(0,0,0)" stroke="rgb(0,0,0)" stroke-width="1" opacity="0" d="M 1488.5 1355 Q 1503.3 1353.3 1511 1358.5 Q 1507.4 1361.9 1499.5 1361 L 1498 1362.5 L 1503 1365.5 Q 1504.5 1369.9 1501.5 1369 L 1499 1370 L 1498 1374.5 L 1499 1376.5 L 1498 1379 L 1507 1380 L 1506.5 1382 L 1485 1382 L 1485 1375.5 L 1487 1368.5 L 1485 1366.5 L 1484 1360.5 L 1485 1357 L 1488.5 1355 Z " /><path fill="rgb(0,0,0)" stroke="rgb(0,0,0)" stroke-width="1" opacity="0" d="M 695.5 1375 L 698 1376.5 L 697 1379 L 708 1380 L 707.5 1382 L 687.5 1382 L 686 1378.5 L 687 1376 L 694.5 1376 L 695.5 1375 Z " /><path fill="rgb(0,0,0)" stroke="rgb(0,0,0)" stroke-width="1" opacity="0" d="M 703.5 1384 L 707 1384.5 L 703.5 1385 L 703.5 1384 Z " /><path fill="rgb(0,0,0)" stroke="rgb(0,0,0)" stroke-width="1" opacity="0" d="M 1502.5 1384 L 1506 1384.5 L 1502.5 1385 L 1502.5 1384 Z " /><path fill="rgb(0,0,0)" stroke="rgb(0,0,0)" stroke-width="1" opacity="0" d="M 884.5 1392 L 885 1404.5 L 884 1404.5 L 884.5 1392 Z " /><path fill="rgb(0,0,0)" stroke="rgb(0,0,0)" stroke-width="1" opacity="0.9921568627450981" d="M 434.5 569 L 1565.5 569 L 1567 570.5 L 1567 1262.5 L 1565.5 1263 L 1564.5 1264 L 435.5 1264 L 433 1263 L 433 570.5 L 434.5 569 Z M 486 632 L 486 1210 L 613 1210 L 613 1071 L 567 1071 L 567 1163 L 532 1163 L 532 911 L 533 910 L 613 910 L 613 863 L 532 863 L 532 679 L 567 679 L 567 771 L 613 771 L 613 632 L 486 632 Z M 684 632 L 682 634 L 682 909 L 684 910 L 763 910 L 763 911 L 763 1163 L 729 1163 L 729 1073 L 728 1071 L 684 1071 L 682 1073 L 682 1209 L 684 1210 L 809 1210 L 809 864 L 809 863 L 729 863 L 729 679 L 763 679 L 763 771 L 809 771 L 809 632 L 684 632 Z M 879 632 L 879 1210 L 880 1210 L 925 1210 L 925 633 L 925 632 L 879 632 Z M 994 632 L 994 1210 L 1121 1210 L 1121 863 L 1065 863 L 1063 865 L 1063 909 L 1065 910 L 1075 910 L 1075 911 L 1075 1163 L 1041 1163 L 1040 1163 L 1040 679 L 1075 679 L 1075 771 L 1121 771 L 1121 632 L 994 632 Z M 1191 632 L 1191 1210 L 1192 1210 L 1237 1210 L 1238 776 L 1271 908 L 1271 1209 L 1273 1210 L 1317 1210 L 1318 1209 L 1318 634 L 1317 632 L 1273 632 L 1271 634 L 1271 770 L 1237 636 L 1237 632 L 1191 632 Z M 1387 632 L 1387 1210 L 1433 1210 L 1433 1210 L 1433 910 L 1468 910 L 1468 911 L 1468 1210 L 1469 1210 L 1514 1210 L 1514 633 L 1514 632 L 1387 632 Z " /><path fill="rgb(0,0,0)" stroke="rgb(0,0,0)" stroke-width="1" opacity="0.9921568627450981" d="M 1433 679 L 1467.5 679 L 1468 679.5 L 1468 863 L 1433.5 863 L 1433 862.5 L 1433 679 Z " /><path fill="rgb(0,0,0)" stroke="rgb(0,0,0)" stroke-width="1" opacity="0.9921568627450981" d="M 489.5 1338 Q 513.3 1335.7 525 1345.5 L 521 1356 L 506.5 1351 L 493.5 1350 L 484.5 1353 L 481 1356.5 L 480 1364.5 L 487.5 1371 L 511.5 1377 Q 520 1379.5 525 1385.5 Q 528.8 1390.2 529 1398.5 Q 526.8 1399.8 528 1404.5 L 525 1410.5 L 519.5 1416 Q 513 1420.5 503.5 1422 L 487.5 1422 L 472.5 1418 L 464 1412.5 L 464 1409.5 L 468 1401 L 482.5 1408 L 498.5 1410 L 507.5 1408 L 512 1404.5 L 514 1397.5 L 510.5 1392 L 501.5 1388 L 478.5 1382 Q 471 1379 467 1372.5 Q 463.6 1367.4 465 1357.5 Q 467.8 1347.8 475.5 1343 L 489.5 1338 Z " /><path fill="rgb(0,0,0)" stroke="rgb(0,0,0)" stroke-width="1" opacity="0.9921568627450981" d="M 560 1339 L 628.5 1339 L 629 1339.5 L 629 1352 L 602 1352 L 602 1420.5 L 601.5 1421 L 588.5 1421 L 587 1419.5 L 587 1352 L 560 1352 L 560 1339 Z " /><path fill="rgb(0,0,0)" stroke="rgb(0,0,0)" stroke-width="1" opacity="0.9921568627450981" d="M 667 1339 L 707.5 1339 Q 708.8 1341.3 713.5 1340 Q 725.7 1343.3 732 1352.5 L 736 1363.5 L 736 1372.5 L 735 1377.5 L 729 1388 L 721.5 1393 L 719 1393 L 719 1395.5 L 736 1418.5 L 736 1421 L 721.5 1421 L 719 1418.5 L 705 1397 L 682 1397 L 682 1421 L 667 1421 L 667 1339 Z M 682 1352 L 682 1384 L 684 1385 L 707 1385 L 716 1381 L 721 1371 L 721 1366 L 719 1360 Q 715 1354 708 1352 L 682 1352 Z " /><path fill="rgb(0,0,0)" stroke="rgb(0,0,0)" stroke-width="1" opacity="0.9921568627450981" d="M 779 1339 L 838.5 1339 L 839 1339.5 L 839 1352 L 794 1352 L 794 1373 L 833.5 1373 L 834 1373.5 L 834 1385 L 795.5 1385 L 794 1386.5 L 794 1408 L 840.5 1408 L 841 1408.5 L 841 1421 L 779 1421 L 779 1339 Z " /><path fill="rgb(0,0,0)" stroke="rgb(0,0,0)" stroke-width="1" opacity="0.9921568627450981" d="M 885.5 1339 L 943.5 1339 L 944 1339.5 L 944 1350.5 L 942.5 1352 L 899 1352 L 899 1373 L 938.5 1373 L 939 1373.5 L 939 1385 L 900.5 1385 L 899 1386.5 L 899 1408 L 945.5 1408 L 946 1408.5 L 946 1421 L 884.5 1421 L 884 1420.5 L 884 1412.5 L 885 1410.5 L 884 1408.5 L 885 1406.5 L 885 1404.5 L 885 1392.5 L 884 1391.5 L 884 1340.5 L 885.5 1339 Z " /><path fill="rgb(0,0,0)" stroke="rgb(0,0,0)" stroke-width="1" opacity="0.9921568627450981" d="M 979 1339 L 1047.5 1339 L 1048 1339.5 L 1048 1352 L 1021 1352 L 1021 1420.5 L 1020.5 1421 L 1006 1421 L 1006 1352.5 L 1005.5 1352 L 979 1352 L 979 1339 Z " /><path fill="rgb(0,0,0)" stroke="rgb(0,0,0)" stroke-width="1" opacity="0.9921568627450981" d="M 1080 1339 L 1094.5 1339 L 1095 1341.5 L 1114 1400 Q 1117 1401.3 1116 1397.5 L 1136 1339 L 1149.5 1339 L 1151 1340.5 L 1170 1400 Q 1173 1401.3 1172 1397.5 L 1174 1394.5 L 1174 1391.5 L 1192 1339 L 1205.5 1339 L 1206 1341.5 L 1180 1419.5 L 1178.5 1421 L 1163.5 1421 L 1163 1419.5 L 1144 1362.5 L 1142.5 1361 L 1123 1419.5 L 1121.5 1421 L 1106.5 1421 L 1105 1419.5 L 1104 1413.5 L 1080 1343.5 L 1080 1339 Z " /><path fill="rgb(0,0,0)" stroke="rgb(0,0,0)" stroke-width="1" opacity="0.9921568627450981" d="M 1247 1339 L 1306.5 1339 L 1307 1339.5 L 1307 1350.5 L 1305.5 1352 L 1262 1352 L 1262 1373 L 1301.5 1373 L 1302 1373.5 L 1302 1385 L 1263.5 1385 L 1262 1386.5 L 1262 1408 L 1307.5 1408 L 1309 1409.5 L 1309 1421 L 1247 1421 L 1247 1339 Z " /><path fill="rgb(0,0,0)" stroke="rgb(0,0,0)" stroke-width="1" opacity="0.9921568627450981" d="M 1377 1339 L 1392.5 1339 L 1393 1341.5 L 1429 1421 L 1413.5 1421 L 1413 1418.5 L 1406 1402 L 1364.5 1402 L 1363 1403.5 L 1355.5 1421 L 1341.5 1421 L 1341 1419.5 L 1377 1339 Z M 1385 1355 L 1370 1390 L 1373 1391 L 1375 1390 L 1400 1390 L 1388 1361 L 1385 1355 Z " /><path fill="rgb(0,0,0)" stroke="rgb(0,0,0)" stroke-width="1" opacity="0.9921568627450981" d="M 1466 1339 L 1505.5 1339 Q 1507 1341.5 1512.5 1340 Q 1524.7 1343.3 1531 1352.5 L 1535 1363.5 L 1535 1372.5 L 1534 1377.5 L 1528 1388 L 1520.5 1393 L 1518 1393 L 1518 1395.5 L 1536 1420.5 L 1520.5 1421 L 1504 1397 L 1481 1397 L 1481 1421 L 1466 1421 L 1466 1339 Z M 1481 1352 L 1481 1384 L 1483 1385 L 1506 1385 L 1517 1379 L 1520 1373 Q 1521 1364 1518 1360 Q 1514 1354 1507 1352 L 1481 1352 Z " /><path fill="rgb(239,239,239)" stroke="rgb(239,239,239)" stroke-width="1" opacity="0.22745098039215686" d="M 435.5 565 L 446.5 565 L 455.5 567 L 1435.5 567 L 1436.5 566 L 1480.5 566 L 1481.5 567 L 1531.5 567 L 1542.5 565 L 1566.5 565 L 1569 566 L 1571 569.5 L 1571 1262.5 L 1567.5 1267 L 1558.5 1268 L 1557.5 1267 L 769.5 1267 L 768.5 1268 L 755.5 1268 L 753.5 1268 L 740.5 1268 L 739.5 1267 L 454.5 1267 L 453.5 1268 L 436.5 1268 L 430 1265.5 L 429 1263.5 L 429 1117.5 L 428 1116.5 L 429 1113.5 L 429 1111.5 L 428 1107.5 L 428 1105.5 L 429 1102.5 L 428 1101.5 L 428 1048.5 L 428 1046.5 L 429 1039.5 L 428 1037.5 L 429 1035.5 L 428 1033.5 L 429 1031.5 L 428 1029.5 L 429 1027.5 L 429 1025.5 L 428 1022.5 L 429 1020.5 L 428 1018.5 L 429 1016.5 L 428 1013.5 L 428 1011.5 L 429 1008.5 L 428 1007.5 L 428 955.5 L 429 953.5 L 428 951.5 L 429 949.5 L 429 947.5 L 428 944.5 L 429 943.5 L 429 656.5 L 428 654.5 L 429 652.5 L 428 650.5 L 428 648.5 Q 426.3 640.3 429 636.5 L 429 634.5 L 428 631.5 L 429 628.5 L 429 626.5 L 428 623.5 L 429 621.5 L 428 620.5 L 428 590.5 L 429 589.5 L 429 573.5 L 431.5 567 L 435.5 565 Z M 437 568 L 435 569 L 432 572 L 432 1262 L 435 1264 L 439 1265 L 461 1265 L 462 1264 L 745 1264 L 746 1265 Q 750 1266 752 1264 Q 756 1263 758 1265 L 781 1265 L 782 1264 L 1560 1264 L 1561 1265 L 1566 1264 L 1568 1262 L 1568 572 L 1564 568 L 437 568 Z " /><path fill="rgb(239,239,239)" stroke="rgb(239,239,239)" stroke-width="1" opacity="0.22745098039215686" d="M 666.5 1334 L 667.5 1335 L 702.5 1335 L 709.5 1337 L 716.5 1337 L 731 1345 L 739 1359.5 L 739 1375.5 L 735 1382.5 L 735 1386 Q 732 1384.8 733 1388.5 L 727 1392 Q 728 1395 725 1394 L 725 1397.5 L 729 1405 L 733 1407.5 L 735 1413 Q 737.7 1411.9 737 1414.5 Q 740.2 1416.3 740 1421.5 L 735.5 1425 L 723.5 1425 L 718 1423 L 718 1421 Q 715.3 1422.1 716 1419.5 L 712 1413 Q 709 1414.3 710 1410.5 L 708 1407 Q 705 1408.3 706 1404.5 L 704 1401 L 701.5 1400 L 686 1400 L 686 1420.5 L 682.5 1425 L 669.5 1425 L 663 1420.5 L 664 1383.5 L 663 1379.5 L 664 1378.5 L 664 1366.5 L 663 1361.5 L 664 1358.5 Q 661.8 1357.3 663 1352.5 L 664 1351.5 L 664 1336.5 L 666.5 1334 Z M 669 1338 L 667 1340 L 667 1421 L 668 1421 L 683 1421 L 683 1403 L 682 1402 L 683 1399 L 684 1397 L 704 1397 L 719 1420 L 721 1421 L 733 1421 L 734 1422 L 737 1421 L 736 1418 L 721 1398 L 720 1393 L 726 1391 L 732 1385 L 736 1376 L 736 1361 L 731 1351 Q 725 1343 715 1340 Q 710 1341 709 1339 L 672 1339 L 669 1338 Z " /><path fill="rgb(239,239,239)" stroke="rgb(239,239,239)" stroke-width="1" opacity="0.22745098039215686" d="M 777.5 1334 L 790.5 1336 L 791.5 1335 L 839.5 1334 L 844 1337.5 L 843 1350.5 L 838.5 1355 L 810.5 1356 Q 808.8 1353.3 802.5 1355 L 799 1357.5 L 798 1359.5 L 798 1369 L 811.5 1369 L 819 1365.5 L 819.5 1362 L 820 1365 Q 822.7 1366.1 822 1363.5 L 821.5 1362 L 825 1362.5 L 824 1365.5 Q 825 1369 830.5 1368 L 835.5 1367 Q 838.6 1368.4 838 1373.5 L 837 1374.5 L 837 1388.5 L 835.5 1390 L 832.5 1391 L 831.5 1390 L 799.5 1390 L 798 1391.5 L 798 1403.5 Q 805 1407.5 817.5 1406 L 818.5 1405 L 841.5 1404 Q 847 1406 845 1415.5 L 843 1423 L 839.5 1425 L 819.5 1425 L 818.5 1424 L 809.5 1424 L 808.5 1425 L 779.5 1425 L 776 1423 L 774 1413.5 L 774 1404.5 L 775 1403.5 L 776 1375.5 L 775 1374.5 L 774 1362.5 L 775 1361.5 L 775 1352.5 Q 772.5 1351 774 1345.5 L 774 1343.5 Q 772.5 1335.5 777.5 1334 Z M 828 1338 L 827 1339 L 779 1339 L 779 1421 L 841 1421 L 841 1409 L 841 1408 L 795 1408 L 795 1386 L 834 1386 L 834 1373 L 795 1373 L 795 1352 L 839 1352 L 840 1351 L 840 1340 L 839 1338 L 828 1338 Z " /><path fill="rgb(239,239,239)" stroke="rgb(239,239,239)" stroke-width="1" opacity="0.22745098039215686" d="M 931.5 1334 L 940.5 1335 L 942.5 1334 L 946 1335 L 948 1339.5 Q 945.2 1341.3 947 1347.5 L 948 1352 L 946 1352 Q 947.1 1354.7 944.5 1354 L 943.5 1355 L 933.5 1355 L 932.5 1356 L 910 1356 L 908.5 1360 L 903 1358 L 903 1367.5 L 904.5 1368 L 905.5 1369 L 919.5 1369 L 923 1364.5 L 923 1362 L 926 1362 L 926 1368 L 928.5 1368 L 929.5 1369 L 940.5 1369 L 944 1371.5 L 943 1377.5 L 944 1382.5 L 938.5 1390 L 905.5 1390 L 903 1391 L 904 1396.5 Q 901.8 1397.8 903 1402.5 L 904 1405 L 946.5 1405 L 949 1407.5 L 948 1416.5 L 949 1419.5 L 948 1423 L 944.5 1425 L 924.5 1425 L 923.5 1424 L 913.5 1424 L 912.5 1425 L 886.5 1425 L 881 1421.5 L 882 1418.5 L 882 1341.5 L 881 1339.5 L 883.5 1335 L 893.5 1336 L 894.5 1335 L 930.5 1335 L 931.5 1334 Z M 927 1338 L 926 1339 L 884 1339 L 884 1421 L 946 1421 L 946 1409 L 946 1408 L 900 1408 L 900 1394 L 899 1393 L 900 1391 Q 899 1386 901 1386 L 939 1386 L 940 1382 L 939 1373 L 901 1373 L 899 1372 L 900 1370 L 900 1352 L 944 1352 L 944 1341 L 945 1340 L 943 1338 L 927 1338 Z " /><path fill="rgb(239,239,239)" stroke="rgb(239,239,239)" stroke-width="1" opacity="0.22745098039215686" d="M 977.5 1334 L 987.5 1336 L 988.5 1335 L 1020.5 1335 L 1022.5 1334 L 1023.5 1335 L 1050.5 1335 L 1052 1336.5 L 1053 1340.5 L 1052 1343.5 Q 1054.2 1344.8 1053 1349.5 L 1048.5 1355 L 1026.5 1355 L 1024 1357.5 L 1024 1421.5 L 1022 1425 L 1007.5 1425 L 1003 1423 L 1002 1420.5 L 1001 1404.5 L 1001 1402.5 L 1002 1400.5 L 1002 1373.5 Q 996.5 1371 1001 1368.5 Q 998.4 1367.1 999 1362.5 L 1001 1356 L 994.5 1355 L 978.5 1355 L 976 1354 L 976 1335.5 L 977.5 1334 Z M 980 1338 L 978 1340 L 978 1351 L 980 1352 L 1006 1352 L 1006 1421 L 1007 1421 L 1021 1421 L 1022 1416 L 1022 1407 L 1021 1406 L 1021 1355 L 1022 1352 L 1048 1352 L 1049 1351 L 1049 1340 L 1048 1338 L 1040 1338 L 1039 1339 L 1027 1339 L 1026 1338 L 1021 1339 L 986 1339 Q 984 1337 980 1338 Z " /><path fill="rgb(239,239,239)" stroke="rgb(239,239,239)" stroke-width="1" opacity="0.22745098039215686" d="M 1204.5 1334 Q 1209.6 1333.4 1211 1336.5 L 1211 1340.5 L 1204 1354.5 L 1202 1366 Q 1198.7 1364.7 1200 1369.5 Q 1197.2 1371.5 1198 1376 Q 1194.5 1374.9 1196 1382.5 L 1194 1384.5 L 1194 1389.5 L 1190 1396.5 L 1187 1410.5 L 1181.5 1423 L 1178.5 1425 L 1167.5 1425 L 1161.5 1423 L 1159 1420.5 L 1146 1376 Q 1143.3 1377.1 1144 1374.5 L 1142 1375.5 L 1140 1382.5 L 1134 1393.5 L 1134 1398.5 L 1130 1406.5 L 1130 1410.5 L 1126 1416.5 L 1126 1421 Q 1123.3 1419.9 1124 1422.5 L 1121.5 1425 L 1106.5 1425 L 1103 1423 L 1099 1407 Q 1095.7 1408.3 1097 1403.5 L 1095 1401.5 L 1095 1395.5 Q 1092 1394.5 1093 1389.5 L 1087 1377.5 L 1087 1372.5 Q 1084.2 1370.8 1085 1365.5 L 1081 1359.5 L 1081 1356.5 L 1078 1350.5 L 1077 1337.5 L 1078 1335 L 1093.5 1335 L 1098 1338.5 L 1101 1345.5 L 1102 1354.5 L 1106 1362.5 L 1106 1367.5 L 1110 1374.5 L 1110 1379.5 L 1114.5 1386 L 1119 1380.5 Q 1118.8 1375.3 1122 1373.5 L 1122 1370.5 L 1126 1361.5 L 1126 1356.5 L 1132 1344.5 L 1132 1338.5 L 1134 1335 L 1150.5 1335 L 1153 1336 Q 1152.3 1339.4 1155 1340.5 L 1155 1345.5 L 1157 1347.5 L 1157 1352.5 L 1163 1365.5 L 1163 1370.5 Q 1166.3 1371.8 1165 1377.5 L 1171.5 1388 L 1177 1377.5 L 1177 1373.5 L 1181 1365.5 L 1181 1361.5 Q 1183.8 1359.8 1183 1354.5 L 1185 1352.5 L 1185 1349 Q 1189 1350.4 1187 1343.5 Q 1190.3 1342 1189 1337 Q 1192.1 1337.8 1191.5 1335 L 1203.5 1335 L 1204.5 1334 Z M 1138 1338 L 1135 1341 L 1122 1382 L 1115 1399 L 1095 1341 L 1095 1339 L 1079 1339 L 1081 1349 L 1105 1419 L 1106 1421 L 1123 1421 L 1142 1365 Q 1141 1362 1144 1363 L 1162 1420 L 1164 1421 L 1180 1421 L 1197 1368 L 1199 1365 L 1201 1355 L 1205 1347 L 1206 1341 Q 1208 1339 1206 1338 L 1194 1338 L 1191 1339 L 1189 1349 L 1187 1352 L 1172 1398 Q 1173 1400 1170 1399 L 1151 1339 Q 1147 1337 1138 1338 Z " /><path fill="rgb(239,239,239)" stroke="rgb(239,239,239)" stroke-width="1" opacity="0.22745098039215686" d="M 1377.5 1334 L 1392.5 1335 L 1397 1338.5 L 1407 1365.5 L 1415 1380.5 L 1415 1384 Q 1418 1382.8 1417 1386.5 L 1419 1388.5 L 1425 1403.5 L 1429 1407.5 L 1429 1411.5 L 1433 1420.5 L 1432 1423 Q 1427.8 1422 1426.5 1425 L 1416.5 1425 L 1411 1423 L 1406 1414.5 L 1404 1406 L 1401.5 1405 L 1367.5 1405 L 1360 1418.5 L 1359 1423 L 1355.5 1425 L 1339 1425 L 1337 1421.5 L 1337 1416.5 L 1341 1412.5 L 1349 1394 Q 1352.7 1395.3 1351 1389.5 L 1359 1374.5 L 1359 1371.5 L 1361 1369.5 L 1361 1366.5 L 1368 1352.5 L 1369 1347.5 L 1374 1337.5 L 1377.5 1334 Z M 1379 1338 L 1374 1345 L 1354 1392 L 1340 1421 L 1357 1421 L 1364 1404 L 1365 1402 L 1405 1402 L 1413 1420 L 1414 1421 L 1429 1421 L 1426 1412 L 1397 1350 L 1394 1341 L 1392 1338 L 1387 1339 L 1379 1338 Z " /><path fill="rgb(239,239,239)" stroke="rgb(239,239,239)" stroke-width="1" opacity="0.22745098039215686" d="M 485.5 1335 L 510.5 1335 Q 513.1 1338.4 520.5 1337 L 524 1339.5 Q 523.3 1341.8 525.5 1341 Q 529.5 1342.7 528 1349 Q 525.3 1347.9 526 1350.5 Q 522.8 1353 524 1359 L 517.5 1360 L 503.5 1354 L 492.5 1354 L 485 1358.5 L 484 1362.5 L 486.5 1366 L 522 1378 Q 520.9 1380.7 523.5 1380 L 530 1386.5 Q 529.2 1391.8 532 1393.5 L 532 1402.5 L 528 1413 L 526 1413 L 526 1415 L 524 1415 L 524 1417 L 522 1417 Q 523.1 1419.7 520.5 1419 L 518.5 1421 L 515.5 1421 L 507.5 1425 L 483.5 1425 L 480.5 1423 L 475.5 1423 Q 474.5 1420 469.5 1421 L 466 1419 L 466 1417 L 462 1417 L 462 1415.5 Q 458.5 1414 460 1407.5 L 462 1405.5 L 462 1401.5 L 464 1398 L 473.5 1397 L 477.5 1402 L 482 1404 L 483.5 1400 Q 486.3 1400.6 485 1394.5 L 486 1392 Q 490.6 1393.3 492 1390.5 L 470 1382 L 470 1380 Q 467.3 1381.1 468 1378.5 L 462 1370.5 L 462 1353 Q 465 1354.3 464 1350.5 L 466 1347 L 468 1347 L 468 1345 L 470 1345 L 470 1343 L 472 1343 Q 470.9 1340.3 473.5 1341 L 478.5 1337 L 485.5 1335 Z M 487 1338 L 474 1344 L 465 1355 L 465 1370 L 467 1374 Q 472 1380 480 1383 L 504 1389 L 510 1392 Q 514 1394 513 1403 L 507 1408 L 497 1410 L 483 1408 L 470 1401 L 467 1401 Q 468 1407 463 1410 L 463 1413 L 474 1419 L 485 1422 L 507 1422 L 523 1414 L 529 1402 Q 530 1393 527 1388 L 518 1379 L 507 1375 L 503 1375 L 500 1373 L 489 1371 L 480 1365 Q 479 1358 482 1356 L 491 1351 L 506 1351 L 521 1357 L 523 1350 L 525 1348 L 525 1344 L 517 1340 L 509 1338 L 487 1338 Z " /><path fill="rgb(239,239,239)" stroke="rgb(239,239,239)" stroke-width="1" opacity="0.22745098039215686" d="M 557.5 1335 L 630.5 1335 L 633 1337.5 L 633 1350.5 L 632 1353 L 628.5 1355 L 606.5 1355 L 605 1356.5 L 604 1358.5 L 604 1369.5 L 604 1371.5 L 604 1404.5 L 605 1406.5 L 604 1407.5 L 604 1422.5 L 601.5 1425 L 594.5 1424 L 591.5 1425 L 585 1423 L 585 1416.5 L 584 1415.5 Q 586.8 1413.8 585 1407.5 L 584 1406.5 L 584 1383.5 Q 581.8 1382.2 583 1377.5 L 584 1376.5 L 584 1360.5 L 583 1358.5 L 584 1356 L 581.5 1355 L 559.5 1355 L 556 1352.5 Q 552.7 1347.8 554 1338.5 L 557.5 1335 Z M 562 1338 L 561 1339 L 559 1340 L 559 1351 L 561 1352 L 586 1352 L 587 1354 L 587 1421 L 602 1421 L 603 1420 L 602 1417 Q 600 1410 603 1409 L 602 1404 L 602 1357 L 603 1352 L 629 1352 L 630 1351 L 630 1340 L 629 1338 L 609 1338 L 608 1339 L 566 1339 L 562 1338 Z " /><path fill="rgb(239,239,239)" stroke="rgb(239,239,239)" stroke-width="1" opacity="0.22745098039215686" d="M 1245.5 1335 L 1309.5 1335 L 1311 1336.5 L 1311 1350.5 L 1307.5 1354 L 1305.5 1355 L 1270.5 1355 L 1265 1358.5 L 1266 1369 Q 1273.9 1371.4 1287.5 1370 L 1292.5 1369 L 1295.5 1370 L 1302.5 1368 L 1306 1370.5 L 1305 1387.5 L 1302.5 1390 L 1268.5 1389 L 1265 1390 Q 1263 1400.3 1267.5 1405 L 1282.5 1406 L 1283.5 1405 L 1310.5 1405 L 1312 1406.5 L 1312 1421.5 L 1307.5 1425 L 1248.5 1425 L 1243 1420.5 L 1244 1399.5 Q 1241.7 1398.3 1243 1393.5 L 1244 1392.5 L 1244 1355.5 L 1243 1354.5 L 1243 1337.5 L 1245.5 1335 Z M 1293 1338 L 1292 1339 L 1247 1339 L 1247 1421 L 1309 1421 L 1309 1409 L 1309 1408 L 1263 1408 L 1262 1406 L 1262 1387 L 1264 1385 L 1268 1386 L 1302 1386 L 1302 1374 L 1302 1373 L 1262 1373 L 1263 1371 L 1263 1363 L 1262 1362 L 1263 1359 Q 1262 1352 1264 1352 L 1307 1352 L 1307 1340 L 1306 1338 L 1293 1338 Z " /><path fill="rgb(239,239,239)" stroke="rgb(239,239,239)" stroke-width="1" opacity="0.22745098039215686" d="M 1463.5 1335 L 1494.5 1335 L 1504.5 1337 L 1514.5 1337 L 1516.5 1339 L 1520.5 1339 L 1525.5 1343 L 1528 1343 L 1528 1345 Q 1530.7 1343.9 1530 1346.5 Q 1532.8 1347.6 1532 1351 Q 1534.7 1349.9 1534 1352.5 L 1536 1354.5 Q 1535.2 1359.8 1538 1361.5 L 1538 1376.5 L 1536 1382 Q 1533 1380.8 1534 1384.5 L 1525.5 1394 Q 1523.3 1393.3 1524 1395.5 Q 1526 1403.5 1532 1407.5 L 1532 1410 Q 1534.7 1408.9 1534 1411.5 L 1538 1414 L 1539 1420.5 L 1538 1423 L 1534.5 1425 L 1531.5 1425 L 1526.5 1424 Q 1525.3 1426.3 1520.5 1425 L 1517 1423 Q 1518 1420 1515 1421 L 1515 1417 L 1513 1417 L 1513 1415 Q 1510.3 1416.1 1511 1413.5 Q 1508.3 1412.4 1509 1409 Q 1506 1410.3 1507 1406.5 L 1500.5 1400 L 1486 1400 Q 1483.6 1403.9 1485 1413.5 L 1486 1417.5 L 1482.5 1424 L 1480.5 1425 L 1467.5 1425 L 1463 1423 L 1462 1420.5 L 1462 1385.5 L 1461 1382.5 L 1462 1381.5 L 1462 1359.5 Q 1459.4 1356.6 1460 1350.5 L 1461 1349.5 L 1461 1338.5 L 1463.5 1335 Z M 1469 1338 L 1468 1339 L 1466 1340 L 1466 1421 L 1482 1421 L 1482 1397 L 1493 1397 L 1494 1398 L 1495 1397 L 1503 1397 L 1519 1421 L 1533 1421 L 1534 1422 L 1536 1421 L 1535 1418 Q 1525 1408 1519 1395 L 1525 1391 Q 1532 1386 1535 1377 Q 1538 1358 1530 1351 Q 1524 1343 1514 1340 Q 1509 1341 1508 1339 L 1473 1339 L 1469 1338 Z " /><path fill="rgb(239,239,239)" stroke="rgb(239,239,239)" stroke-width="1" opacity="0.22745098039215686" d="M 683 1352 L 704.5 1352 L 712.5 1354 L 717 1357 L 720 1362.5 L 720 1374.5 L 714.5 1381 Q 707.9 1385.4 696.5 1385 Q 695 1382.5 689.5 1384 L 684.5 1385 L 682 1381.5 L 683 1380.5 L 683 1352 Z M 691 1355 L 690 1357 L 693 1357 L 691 1355 Z M 696 1375 L 695 1376 L 687 1376 L 686 1379 L 688 1382 L 708 1382 L 708 1380 L 697 1379 L 698 1377 L 696 1375 Z " /><path fill="rgb(239,239,239)" stroke="rgb(239,239,239)" stroke-width="1" opacity="0.22745098039215686" d="M 1482 1352 L 1505.5 1352 Q 1513 1353.5 1517 1358.5 Q 1520.2 1362.8 1520 1370.5 Q 1518.9 1377.9 1513.5 1381 Q 1502.8 1387.3 1483.5 1385 L 1482 1383.5 L 1482 1352 Z M 1489 1355 L 1485 1357 L 1484 1361 L 1485 1367 L 1487 1369 L 1485 1376 L 1485 1382 L 1507 1382 L 1507 1380 L 1498 1379 L 1499 1377 L 1498 1375 L 1499 1370 L 1502 1369 Q 1505 1370 1503 1366 L 1498 1363 L 1500 1361 Q 1507 1362 1511 1359 Q 1503 1353 1489 1355 Z " /><path fill="rgb(239,239,239)" stroke="rgb(239,239,239)" stroke-width="1" opacity="0.22745098039215686" d="M 1384.5 1356 L 1387 1358.5 L 1399 1390 L 1370 1389.5 L 1384.5 1356 Z " /><path fill="rgb(239,239,239)" stroke="rgb(239,239,239)" stroke-width="1" opacity="0.22745098039215686" d="M 908.5 1361 L 909.5 1363 Q 906.7 1363.7 908.5 1361 Z " /><path fill="rgb(239,239,239)" stroke="rgb(239,239,239)" stroke-width="1" opacity="0.22745098039215686" d="M 932 1361 L 937 1362.5 L 932 1364 L 932 1361 Z " /><path fill="rgb(239,239,239)" stroke="rgb(239,239,239)" stroke-width="1" opacity="0.22745098039215686" d="M 815.5 1394 L 817 1397.5 L 815 1398.5 L 815.5 1394 Z " /><path fill="rgb(239,239,239)" stroke="rgb(239,239,239)" stroke-width="1" opacity="0.22745098039215686" d="M 923.5 1395 Q 925.8 1394.3 925 1396.5 L 925 1398.5 Q 924.3 1400.8 926.5 1400 L 927.5 1402 L 921.5 1403 L 919 1401.5 L 922 1400 Q 921 1396.2 923.5 1395 Z " /><path fill="rgb(239,239,239)" stroke="rgb(239,239,239)" stroke-width="1" opacity="0.22745098039215686" d="M 814.5 1401 L 821 1401.5 L 814.5 1402 L 814.5 1401 Z " /><path fill="rgb(233,220,185)" stroke="rgb(233,220,185)" stroke-width="1" opacity="0.9921568627450981" d="M 436.5 568 L 1564 568.5 L 436.5 569 L 436.5 568 Z " /><path fill="rgb(233,220,185)" stroke="rgb(233,220,185)" stroke-width="1" opacity="0.9921568627450981" d="M 432.5 571 L 433 1261.5 L 432 1261.5 L 432.5 571 Z " /><path fill="rgb(233,220,185)" stroke="rgb(233,220,185)" stroke-width="1" opacity="0.9921568627450981" d="M 1567.5 571 L 1568 1261.5 L 1567 1261.5 L 1567.5 571 Z " /><path fill="rgb(233,220,185)" stroke="rgb(233,220,185)" stroke-width="1" opacity="0.9921568627450981" d="M 486 632 L 613 632.5 L 487 633 L 487 1208.5 L 487.5 1209 L 612.5 1209 L 612.5 1210 L 486.5 1210 L 486 1209.5 L 486 632 Z " /><path fill="rgb(233,220,185)" stroke="rgb(233,220,185)" stroke-width="1" opacity="0.9921568627450981" d="M 683.5 632 L 809 632.5 L 683 633 L 683 908.5 L 683.5 909 L 763.5 909 L 764 909.5 L 764 1164 L 728 1164 L 728 1072 L 683 1072 L 683 1209 L 808.5 1209 L 808.5 1210 L 683.5 1210 L 682 1208.5 L 682 1072.5 L 683.5 1071 L 727.5 1071 L 729 1072.5 L 729 1163 L 763 1163 L 763 910.5 L 762.5 910 L 683.5 910 L 682 908.5 L 682 633.5 L 683.5 632 Z " /><path fill="rgb(233,220,185)" stroke="rgb(233,220,185)" stroke-width="1" opacity="0.9921568627450981" d="M 879.5 632 L 924.5 632 L 925 632.5 L 925 1210 L 879 1209.5 L 924 1209 L 924 633.5 L 923.5 633 L 879.5 633 L 879.5 632 Z " /><path fill="rgb(233,220,185)" stroke="rgb(233,220,185)" stroke-width="1" opacity="0.9921568627450981" d="M 994 632 L 1121 632.5 L 995 633 L 995 1208.5 L 995.5 1209 L 1120.5 1209 L 1120.5 1210 L 994.5 1210 L 994 1209.5 L 994 632 Z " /><path fill="rgb(233,220,185)" stroke="rgb(233,220,185)" stroke-width="1" opacity="0.9921568627450981" d="M 1191.5 632 L 1236.5 632 L 1237 633.5 L 1235.5 633 L 1191.5 633 L 1191.5 632 Z " /><path fill="rgb(233,220,185)" stroke="rgb(233,220,185)" stroke-width="1" opacity="0.9921568627450981" d="M 1272.5 632 L 1316.5 632 L 1318 633.5 L 1318 1208.5 L 1316.5 1210 L 1272.5 1210 L 1271 1208.5 L 1271.5 908 L 1272 1209 L 1316.5 1209 L 1317 1208.5 L 1317 633 L 1272.5 633 L 1272 633.5 L 1272 772.5 L 1270 771.5 L 1271 769.5 L 1271 633.5 L 1272.5 632 Z " /><path fill="rgb(233,220,185)" stroke="rgb(233,220,185)" stroke-width="1" opacity="0.9921568627450981" d="M 1387.5 632 L 1513.5 632 L 1514 632.5 L 1514 1210 L 1468 1209.5 L 1513 1209 L 1513 633.5 L 1512.5 633 L 1387.5 633 L 1387.5 632 Z " /><path fill="rgb(233,220,185)" stroke="rgb(233,220,185)" stroke-width="1" opacity="0.9921568627450981" d="M 532.5 678 L 567 678.5 L 532.5 679 L 532.5 678 Z " /><path fill="rgb(233,220,185)" stroke="rgb(233,220,185)" stroke-width="1" opacity="0.9921568627450981" d="M 728 678 L 764 678 L 764 770.5 L 763 770.5 L 763 679 L 729 679 L 729 863 L 808.5 863 L 808.5 864 L 728 864 L 728 678 Z " /><path fill="rgb(233,220,185)" stroke="rgb(233,220,185)" stroke-width="1" opacity="0.9921568627450981" d="M 1040.5 678 L 1074.5 678 L 1076 679.5 L 1075.5 771 L 1075 679 L 1040.5 679 L 1040.5 678 Z " /><path fill="rgb(233,220,185)" stroke="rgb(233,220,185)" stroke-width="1" opacity="0.9921568627450981" d="M 1433.5 678 L 1468 678.5 L 1433.5 679 L 1433.5 678 Z " /><path fill="rgb(233,220,185)" stroke="rgb(233,220,185)" stroke-width="1" opacity="0.9921568627450981" d="M 1248.5 680 L 1249 682.5 L 1248 682.5 L 1248.5 680 Z " /><path fill="rgb(233,220,185)" stroke="rgb(233,220,185)" stroke-width="1" opacity="0.9921568627450981" d="M 1249.5 684 L 1250 686.5 L 1249 686.5 L 1249.5 684 Z " /><path fill="rgb(233,220,185)" stroke="rgb(233,220,185)" stroke-width="1" opacity="0.9921568627450981" d="M 1250.5 688 L 1251 690.5 L 1250 690.5 L 1250.5 688 Z " /><path fill="rgb(233,220,185)" stroke="rgb(233,220,185)" stroke-width="1" opacity="0.9921568627450981" d="M 1251.5 692 L 1252 694.5 L 1251 694.5 L 1251.5 692 Z " /><path fill="rgb(233,220,185)" stroke="rgb(233,220,185)" stroke-width="1" opacity="0.9921568627450981" d="M 1263.5 741 L 1264 743.5 L 1263 743.5 L 1263.5 741 Z " /><path fill="rgb(233,220,185)" stroke="rgb(233,220,185)" stroke-width="1" opacity="0.9921568627450981" d="M 1264.5 745 L 1265 747.5 L 1264 747.5 L 1264.5 745 Z " /><path fill="rgb(233,220,185)" stroke="rgb(233,220,185)" stroke-width="1" opacity="0.9921568627450981" d="M 1265.5 749 L 1266 751.5 L 1265 751.5 L 1265.5 749 Z " /><path fill="rgb(233,220,185)" stroke="rgb(233,220,185)" stroke-width="1" opacity="0.9921568627450981" d="M 1266.5 753 L 1267 755.5 L 1266 755.5 L 1266.5 753 Z " /><path fill="rgb(233,220,185)" stroke="rgb(233,220,185)" stroke-width="1" opacity="0.9921568627450981" d="M 1236.5 773 L 1238 775.5 L 1237 776.5 L 1237 1210 L 1191 1209.5 L 1236 1209 L 1236.5 773 Z " /><path fill="rgb(233,220,185)" stroke="rgb(233,220,185)" stroke-width="1" opacity="0.9921568627450981" d="M 1252.5 833 L 1253 835.5 L 1252 835.5 L 1252.5 833 Z " /><path fill="rgb(233,220,185)" stroke="rgb(233,220,185)" stroke-width="1" opacity="0.9921568627450981" d="M 1253.5 837 L 1254 839.5 L 1253 839.5 L 1253.5 837 Z " /><path fill="rgb(233,220,185)" stroke="rgb(233,220,185)" stroke-width="1" opacity="0.9921568627450981" d="M 532.5 863 L 613 863.5 L 532.5 864 L 532.5 863 Z " /><path fill="rgb(233,220,185)" stroke="rgb(233,220,185)" stroke-width="1" opacity="0.9921568627450981" d="M 1064.5 863 L 1121 863.5 L 1064 864 L 1064 908.5 L 1064.5 909 L 1074.5 909 L 1076 910.5 L 1076 1162.5 L 1074.5 1164 L 1040.5 1164 L 1040.5 1163 L 1074.5 1163 L 1075 1162.5 L 1075 910 L 1064.5 910 L 1063 908.5 L 1063 864.5 L 1064.5 863 Z " /><path fill="rgb(233,220,185)" stroke="rgb(233,220,185)" stroke-width="1" opacity="0.9921568627450981" d="M 1433.5 863 L 1468 863.5 L 1433.5 864 L 1433.5 863 Z " /><path fill="rgb(233,220,185)" stroke="rgb(233,220,185)" stroke-width="1" opacity="0.9921568627450981" d="M 1268.5 896 L 1269 898.5 L 1268 898.5 L 1268.5 896 Z " /><path fill="rgb(233,220,185)" stroke="rgb(233,220,185)" stroke-width="1" opacity="0.9921568627450981" d="M 1270.5 904 L 1271 906.5 L 1270 906.5 L 1270.5 904 Z " /><path fill="rgb(233,220,185)" stroke="rgb(233,220,185)" stroke-width="1" opacity="0.9921568627450981" d="M 532.5 909 L 613 909.5 L 532.5 910 L 532.5 909 Z " /><path fill="rgb(233,220,185)" stroke="rgb(233,220,185)" stroke-width="1" opacity="0.9921568627450981" d="M 1433.5 909 L 1468 909.5 L 1433.5 910 L 1433.5 909 Z " /><path fill="rgb(233,220,185)" stroke="rgb(233,220,185)" stroke-width="1" opacity="0.9921568627450981" d="M 567.5 1071 L 613 1071.5 L 567.5 1072 L 567.5 1071 Z " /><path fill="rgb(233,220,185)" stroke="rgb(233,220,185)" stroke-width="1" opacity="0.9921568627450981" d="M 532.5 1163 L 567 1163.5 L 532.5 1164 L 532.5 1163 Z " /><path fill="rgb(233,220,185)" stroke="rgb(233,220,185)" stroke-width="1" opacity="0.9921568627450981" d="M 1387.5 1209 L 1433 1209.5 L 1387.5 1210 L 1387.5 1209 Z " /><path fill="rgb(233,220,185)" stroke="rgb(233,220,185)" stroke-width="1" opacity="0.9921568627450981" d="M 438.5 1264 L 461 1264.5 L 438.5 1265 L 438.5 1264 Z " /><path fill="rgb(233,220,185)" stroke="rgb(233,220,185)" stroke-width="1" opacity="0.9921568627450981" d="M 745.5 1264 L 751 1264.5 L 745.5 1265 L 745.5 1264 Z " /><path fill="rgb(233,220,185)" stroke="rgb(233,220,185)" stroke-width="1" opacity="0.9921568627450981" d="M 757.5 1264 L 781 1264.5 L 757.5 1265 L 757.5 1264 Z " /><path fill="rgb(233,220,185)" stroke="rgb(233,220,185)" stroke-width="1" opacity="0.9921568627450981" d="M 1560.5 1264 L 1563 1264.5 L 1560.5 1265 L 1560.5 1264 Z " /><path fill="rgb(233,220,185)" stroke="rgb(233,220,185)" stroke-width="1" opacity="0.9921568627450981" d="M 559.5 1339 L 560 1350.5 L 559 1350.5 L 559.5 1339 Z " /><path fill="rgb(233,220,185)" stroke="rgb(233,220,185)" stroke-width="1" opacity="0.9921568627450981" d="M 629.5 1339 L 630 1350.5 L 629 1350.5 L 629.5 1339 Z " /><path fill="rgb(233,220,185)" stroke="rgb(233,220,185)" stroke-width="1" opacity="0.9921568627450981" d="M 839.5 1339 L 840 1350.5 L 839 1350.5 L 839.5 1339 Z " /><path fill="rgb(233,220,185)" stroke="rgb(233,220,185)" stroke-width="1" opacity="0.9921568627450981" d="M 978.5 1339 L 979 1350.5 L 978 1350.5 L 978.5 1339 Z " /><path fill="rgb(233,220,185)" stroke="rgb(233,220,185)" stroke-width="1" opacity="0.9921568627450981" d="M 1048.5 1339 L 1049 1350.5 L 1048 1350.5 L 1048.5 1339 Z " /><path fill="rgb(233,220,185)" stroke="rgb(233,220,185)" stroke-width="1" opacity="0.9921568627450981" d="M 473.5 1344 L 468.5 1350 L 473.5 1344 Z " /><path fill="rgb(233,220,185)" stroke="rgb(233,220,185)" stroke-width="1" opacity="0.9921568627450981" d="M 726.5 1346 L 730.5 1351 L 726.5 1346 Z " /><path fill="rgb(233,220,185)" stroke="rgb(233,220,185)" stroke-width="1" opacity="0.9921568627450981" d="M 1525.5 1346 L 1529.5 1351 L 1525.5 1346 Z " /><path fill="rgb(233,220,185)" stroke="rgb(233,220,185)" stroke-width="1" opacity="0.9921568627450981" d="M 493.5 1350 L 502 1350.5 L 493.5 1351 L 493.5 1350 Z " /><path fill="rgb(233,220,185)" stroke="rgb(233,220,185)" stroke-width="1" opacity="0.9921568627450981" d="M 602.5 1352 L 603 1355.5 L 602 1355.5 L 602.5 1352 Z " /><path fill="rgb(233,220,185)" stroke="rgb(233,220,185)" stroke-width="1" opacity="0.9921568627450981" d="M 682.5 1352 L 683 1380.5 L 682 1380.5 L 682.5 1352 Z " /><path fill="rgb(233,220,185)" stroke="rgb(233,220,185)" stroke-width="1" opacity="0.9921568627450981" d="M 794.5 1352 L 795 1372.5 L 794 1372.5 L 794.5 1352 Z " /><path fill="rgb(233,220,185)" stroke="rgb(233,220,185)" stroke-width="1" opacity="0.9921568627450981" d="M 899.5 1352 L 900 1369.5 L 899 1369.5 L 899.5 1352 Z " /><path fill="rgb(233,220,185)" stroke="rgb(233,220,185)" stroke-width="1" opacity="0.9921568627450981" d="M 1262.5 1352 L 1263 1358.5 L 1262 1358.5 L 1262.5 1352 Z " /><path fill="rgb(233,220,185)" stroke="rgb(233,220,185)" stroke-width="1" opacity="0.9921568627450981" d="M 1481.5 1352 L 1482 1383.5 L 1483 1384.5 L 1481 1383.5 L 1481.5 1352 Z " /><path fill="rgb(233,220,185)" stroke="rgb(233,220,185)" stroke-width="1" opacity="0.9921568627450981" d="M 1384.5 1355 L 1385.5 1357 L 1384.5 1355 Z " /><path fill="rgb(233,220,185)" stroke="rgb(233,220,185)" stroke-width="1" opacity="0.9921568627450981" d="M 717.5 1358 L 718.5 1360 L 717.5 1358 Z " /><path fill="rgb(233,220,185)" stroke="rgb(233,220,185)" stroke-width="1" opacity="0.9921568627450981" d="M 735.5 1360 L 736 1362.5 L 735 1362.5 L 735.5 1360 Z " /><path fill="rgb(233,220,185)" stroke="rgb(233,220,185)" stroke-width="1" opacity="0.9921568627450981" d="M 1534.5 1360 L 1535 1362.5 L 1534 1362.5 L 1534.5 1360 Z " /><path fill="rgb(233,220,185)" stroke="rgb(233,220,185)" stroke-width="1" opacity="0.9921568627450981" d="M 1142.5 1361 L 1143.5 1363 L 1142.5 1361 Z " /><path fill="rgb(233,220,185)" stroke="rgb(233,220,185)" stroke-width="1" opacity="0.9921568627450981" d="M 1262.5 1362 L 1263 1370.5 L 1262 1370.5 L 1262.5 1362 Z " /><path fill="rgb(233,220,185)" stroke="rgb(233,220,185)" stroke-width="1" opacity="0.9921568627450981" d="M 720.5 1365 L 721 1370.5 L 720 1370.5 L 720.5 1365 Z " /><path fill="rgb(233,220,185)" stroke="rgb(233,220,185)" stroke-width="1" opacity="0.9921568627450981" d="M 467.5 1373 L 472.5 1379 L 467.5 1373 Z " /><path fill="rgb(233,220,185)" stroke="rgb(233,220,185)" stroke-width="1" opacity="0.9921568627450981" d="M 735.5 1373 L 736 1375.5 L 735 1375.5 L 735.5 1373 Z " /><path fill="rgb(233,220,185)" stroke="rgb(233,220,185)" stroke-width="1" opacity="0.9921568627450981" d="M 1534.5 1373 L 1535 1375.5 L 1534 1375.5 L 1534.5 1373 Z " /><path fill="rgb(233,220,185)" stroke="rgb(233,220,185)" stroke-width="1" opacity="0.9921568627450981" d="M 939.5 1377 L 940 1381.5 L 939 1381.5 L 939.5 1377 Z " /><path fill="rgb(233,220,185)" stroke="rgb(233,220,185)" stroke-width="1" opacity="0.9921568627450981" d="M 682.5 1382 L 684 1384.5 L 682 1383.5 L 682.5 1382 Z " /><path fill="rgb(233,220,185)" stroke="rgb(233,220,185)" stroke-width="1" opacity="0.9921568627450981" d="M 689.5 1384 L 696 1384.5 L 689.5 1385 L 689.5 1384 Z " /><path fill="rgb(233,220,185)" stroke="rgb(233,220,185)" stroke-width="1" opacity="0.9921568627450981" d="M 731.5 1384 L 729.5 1387 L 731.5 1384 Z " /><path fill="rgb(233,220,185)" stroke="rgb(233,220,185)" stroke-width="1" opacity="0.9921568627450981" d="M 1530.5 1384 L 1528.5 1387 L 1530.5 1384 Z " /><path fill="rgb(233,220,185)" stroke="rgb(233,220,185)" stroke-width="1" opacity="0.9921568627450981" d="M 795.5 1385 L 834 1385.5 L 795 1386 L 794.5 1408 L 794 1386.5 L 795.5 1385 Z " /><path fill="rgb(233,220,185)" stroke="rgb(233,220,185)" stroke-width="1" opacity="0.9921568627450981" d="M 900.5 1385 L 939 1385.5 L 900 1386 L 899.5 1391 L 899 1386.5 L 900.5 1385 Z " /><path fill="rgb(233,220,185)" stroke="rgb(233,220,185)" stroke-width="1" opacity="0.9921568627450981" d="M 1267.5 1385 L 1302 1385.5 L 1267.5 1386 L 1267.5 1385 Z " /><path fill="rgb(233,220,185)" stroke="rgb(233,220,185)" stroke-width="1" opacity="0.9921568627450981" d="M 525.5 1386 L 526.5 1388 L 525.5 1386 Z " /><path fill="rgb(233,220,185)" stroke="rgb(233,220,185)" stroke-width="1" opacity="0.9921568627450981" d="M 727.5 1388 L 725.5 1391 L 727.5 1388 Z " /><path fill="rgb(233,220,185)" stroke="rgb(233,220,185)" stroke-width="1" opacity="0.9921568627450981" d="M 1526.5 1388 L 1524.5 1391 L 1526.5 1388 Z " /><path fill="rgb(233,220,185)" stroke="rgb(233,220,185)" stroke-width="1" opacity="0.9921568627450981" d="M 1522.5 1391 L 1521.5 1393 L 1522.5 1391 Z " /><path fill="rgb(233,220,185)" stroke="rgb(233,220,185)" stroke-width="1" opacity="0.9921568627450981" d="M 510.5 1392 L 511.5 1394 L 510.5 1392 Z " /><path fill="rgb(233,220,185)" stroke="rgb(233,220,185)" stroke-width="1" opacity="0.9921568627450981" d="M 528.5 1393 L 529 1395.5 L 528 1395.5 L 528.5 1393 Z " /><path fill="rgb(233,220,185)" stroke="rgb(233,220,185)" stroke-width="1" opacity="0.9921568627450981" d="M 899.5 1393 L 900 1407.5 L 899 1407.5 L 899.5 1393 Z " /><path fill="rgb(233,220,185)" stroke="rgb(233,220,185)" stroke-width="1" opacity="0.9921568627450981" d="M 719.5 1395 L 720.5 1397 L 719.5 1395 Z " /><path fill="rgb(233,220,185)" stroke="rgb(233,220,185)" stroke-width="1" opacity="0.9921568627450981" d="M 1518.5 1395 L 1519.5 1397 L 1518.5 1395 Z " /><path fill="rgb(233,220,185)" stroke="rgb(233,220,185)" stroke-width="1" opacity="0.9921568627450981" d="M 513.5 1397 L 514 1400.5 L 513 1400.5 L 513.5 1397 Z " /><path fill="rgb(233,220,185)" stroke="rgb(233,220,185)" stroke-width="1" opacity="0.9921568627450981" d="M 1481.5 1397 L 1482 1420.5 L 1481 1420.5 L 1481.5 1397 Z " /><path fill="rgb(233,220,185)" stroke="rgb(233,220,185)" stroke-width="1" opacity="0.9921568627450981" d="M 528.5 1399 L 529 1401.5 L 528 1401.5 L 528.5 1399 Z " /><path fill="rgb(233,220,185)" stroke="rgb(233,220,185)" stroke-width="1" opacity="0.9921568627450981" d="M 706.5 1400 L 707.5 1402 L 706.5 1400 Z " /><path fill="rgb(233,220,185)" stroke="rgb(233,220,185)" stroke-width="1" opacity="0.9921568627450981" d="M 682.5 1402 L 683 1420.5 L 682 1420.5 L 682.5 1402 Z " /><path fill="rgb(233,220,185)" stroke="rgb(233,220,185)" stroke-width="1" opacity="0.9921568627450981" d="M 708.5 1403 L 709.5 1405 L 708.5 1403 Z " /><path fill="rgb(233,220,185)" stroke="rgb(233,220,185)" stroke-width="1" opacity="0.9921568627450981" d="M 511.5 1404 L 510.5 1406 L 511.5 1404 Z " /><path fill="rgb(233,220,185)" stroke="rgb(233,220,185)" stroke-width="1" opacity="0.9921568627450981" d="M 602.5 1404 L 603 1408.5 L 602 1408.5 L 602.5 1404 Z " /><path fill="rgb(233,220,185)" stroke="rgb(233,220,185)" stroke-width="1" opacity="0.9921568627450981" d="M 726.5 1405 L 727.5 1407 L 726.5 1405 Z " /><path fill="rgb(233,220,185)" stroke="rgb(233,220,185)" stroke-width="1" opacity="0.9921568627450981" d="M 1525.5 1405 L 1526.5 1407 L 1525.5 1405 Z " /><path fill="rgb(233,220,185)" stroke="rgb(233,220,185)" stroke-width="1" opacity="0.9921568627450981" d="M 710.5 1406 L 711.5 1408 L 710.5 1406 Z " /><path fill="rgb(233,220,185)" stroke="rgb(233,220,185)" stroke-width="1" opacity="0.9921568627450981" d="M 1021.5 1406 L 1022 1415.5 L 1021 1415.5 L 1021.5 1406 Z " /><path fill="rgb(233,220,185)" stroke="rgb(233,220,185)" stroke-width="1" opacity="0.9921568627450981" d="M 1528.5 1409 L 1529.5 1411 L 1528.5 1409 Z " /><path fill="rgb(233,220,185)" stroke="rgb(233,220,185)" stroke-width="1" opacity="0.9921568627450981" d="M 463.5 1411 L 466 1414.5 L 463 1412.5 L 463.5 1411 Z " /><path fill="rgb(233,220,185)" stroke="rgb(233,220,185)" stroke-width="1" opacity="0.9921568627450981" d="M 731.5 1412 L 732.5 1414 L 731.5 1412 Z " /><path fill="rgb(233,220,185)" stroke="rgb(233,220,185)" stroke-width="1" opacity="0.9921568627450981" d="M 1530.5 1412 L 1531.5 1414 L 1530.5 1412 Z " /><path fill="rgb(233,220,185)" stroke="rgb(233,220,185)" stroke-width="1" opacity="0.9921568627450981" d="M 715.5 1413 L 716.5 1415 L 715.5 1413 Z " /><path fill="rgb(233,220,185)" stroke="rgb(233,220,185)" stroke-width="1" opacity="0.9921568627450981" d="M 1514.5 1413 L 1515.5 1415 L 1514.5 1413 Z " /><path fill="rgb(233,220,185)" stroke="rgb(233,220,185)" stroke-width="1" opacity="0.9921568627450981" d="M 733.5 1415 L 734.5 1417 L 733.5 1415 Z " /><path fill="rgb(233,220,185)" stroke="rgb(233,220,185)" stroke-width="1" opacity="0.9921568627450981" d="M 1532.5 1415 L 1533.5 1417 L 1532.5 1415 Z " /><path fill="rgb(233,220,185)" stroke="rgb(233,220,185)" stroke-width="1" opacity="0.9921568627450981" d="M 717.5 1416 L 718.5 1418 L 717.5 1416 Z " /><path fill="rgb(233,220,185)" stroke="rgb(233,220,185)" stroke-width="1" opacity="0.9921568627450981" d="M 602.5 1417 L 603 1419.5 L 602 1419.5 L 602.5 1417 Z " /><path fill="rgb(233,220,185)" stroke="rgb(233,220,185)" stroke-width="1" opacity="0.9921568627450981" d="M 484.5 1421 L 487 1421.5 L 484.5 1422 L 484.5 1421 Z " /><path fill="rgb(235,222,187)" stroke="rgb(235,222,187)" stroke-width="1" opacity="0.996078431372549" d="M 487 633 L 613 633 L 613 771 L 567 771 L 567 678 L 532 678 L 532 864 L 613 864 L 613 909 L 532.5 909 L 532 909.5 L 532 1164 L 567 1164 L 567 1072 L 613 1072 L 613 1209 L 487 1209 L 487 633 Z " /><path fill="rgb(235,222,187)" stroke="rgb(235,222,187)" stroke-width="1" opacity="0.996078431372549" d="M 683 633 L 809 633 L 809 771 L 764 771 L 764 678 L 728 678 L 728 864 L 808.5 864 L 809 864.5 L 809 1209 L 683 1209 L 683 1072 L 728 1072 L 728 1164 L 764 1164 L 764 909.5 L 763.5 909 L 683.5 909 L 683 908.5 L 683 633 Z " /><path fill="rgb(235,222,187)" stroke="rgb(235,222,187)" stroke-width="1" opacity="0.996078431372549" d="M 879 633 L 923.5 633 L 924 633.5 L 924 1209 L 879.5 1209 L 879 1208.5 L 879 633 Z " /><path fill="rgb(235,222,187)" stroke="rgb(235,222,187)" stroke-width="1" opacity="0.996078431372549" d="M 995 633 L 1121 633 L 1121 771 L 1076 771 L 1076 679.5 L 1074.5 678 L 1040 678 L 1040 1163.5 L 1040.5 1164 L 1074.5 1164 L 1076 1162.5 L 1076 910.5 L 1074.5 909 L 1064 909 L 1064 864 L 1121 864 L 1121 1161.5 L 1120 1163.5 L 1121 1164.5 L 1121 1209 L 995.5 1209 L 995 1208.5 L 995 633 Z " /><path fill="rgb(235,222,187)" stroke="rgb(235,222,187)" stroke-width="1" opacity="0.996078431372549" d="M 1191 633 L 1235.5 633 L 1237 634.5 L 1248 678.5 L 1248 682.5 L 1263 739.5 L 1263 743.5 L 1270 771.5 L 1271.5 773 L 1272 633 L 1316.5 633 L 1317 633.5 L 1317 1209 L 1272.5 1209 L 1272 1208.5 L 1272 908.5 L 1269 900.5 L 1269 896.5 L 1267 892.5 L 1239 778.5 L 1236.5 773 L 1236 1209 L 1191.5 1209 L 1191 1208.5 L 1191 633 Z " /><path fill="rgb(235,222,187)" stroke="rgb(235,222,187)" stroke-width="1" opacity="0.996078431372549" d="M 1387 633 L 1512.5 633 L 1513 633.5 L 1513 1209 L 1468.5 1209 L 1468 1208.5 L 1468 909.5 L 1467.5 909 L 1433 909 L 1433 1208.5 L 1432.5 1209 L 1387 1209 L 1387 633 Z M 1433 678 L 1433 864 L 1434 864 L 1468 864 L 1468 679 L 1468 678 L 1433 678 Z " /><path fill="rgb(235,222,187)" stroke="rgb(235,222,187)" stroke-width="1" opacity="0.996078431372549" d="M 561.5 1338 L 565 1338.5 L 561.5 1339 L 561.5 1338 Z " /><path fill="rgb(235,222,187)" stroke="rgb(235,222,187)" stroke-width="1" opacity="0.996078431372549" d="M 608.5 1338 L 629 1338.5 L 608.5 1339 L 608.5 1338 Z " /><path fill="rgb(235,222,187)" stroke="rgb(235,222,187)" stroke-width="1" opacity="0.996078431372549" d="M 668.5 1338 L 671 1338.5 L 668.5 1339 L 668.5 1338 Z " /><path fill="rgb(235,222,187)" stroke="rgb(235,222,187)" stroke-width="1" opacity="0.996078431372549" d="M 827.5 1338 L 839 1338.5 L 827.5 1339 L 827.5 1338 Z " /><path fill="rgb(235,222,187)" stroke="rgb(235,222,187)" stroke-width="1" opacity="0.996078431372549" d="M 926.5 1338 L 943 1338.5 L 926.5 1339 L 926.5 1338 Z " /><path fill="rgb(235,222,187)" stroke="rgb(235,222,187)" stroke-width="1" opacity="0.996078431372549" d="M 979.5 1338 L 985 1338.5 L 979.5 1339 L 979.5 1338 Z " /><path fill="rgb(235,222,187)" stroke="rgb(235,222,187)" stroke-width="1" opacity="0.996078431372549" d="M 1021.5 1338 L 1026 1338.5 L 1021.5 1339 L 1021.5 1338 Z " /><path fill="rgb(235,222,187)" stroke="rgb(235,222,187)" stroke-width="1" opacity="0.996078431372549" d="M 1039.5 1338 L 1048 1338.5 L 1039.5 1339 L 1039.5 1338 Z " /><path fill="rgb(235,222,187)" stroke="rgb(235,222,187)" stroke-width="1" opacity="0.996078431372549" d="M 1137.5 1338 L 1149 1338.5 L 1137.5 1339 L 1137.5 1338 Z " /><path fill="rgb(235,222,187)" stroke="rgb(235,222,187)" stroke-width="1" opacity="0.996078431372549" d="M 1193.5 1338 L 1206 1338.5 L 1193.5 1339 L 1193.5 1338 Z " /><path fill="rgb(235,222,187)" stroke="rgb(235,222,187)" stroke-width="1" opacity="0.996078431372549" d="M 1292.5 1338 L 1306 1338.5 L 1292.5 1339 L 1292.5 1338 Z " /><path fill="rgb(235,222,187)" stroke="rgb(235,222,187)" stroke-width="1" opacity="0.996078431372549" d="M 1378.5 1338 L 1383 1338.5 L 1378.5 1339 L 1378.5 1338 Z " /><path fill="rgb(235,222,187)" stroke="rgb(235,222,187)" stroke-width="1" opacity="0.996078431372549" d="M 1387.5 1338 L 1392 1338.5 L 1387.5 1339 L 1387.5 1338 Z " /><path fill="rgb(235,222,187)" stroke="rgb(235,222,187)" stroke-width="1" opacity="0.996078431372549" d="M 1468.5 1338 L 1472 1338.5 L 1468.5 1339 L 1468.5 1338 Z " /><path fill="rgb(235,222,187)" stroke="rgb(235,222,187)" stroke-width="1" opacity="0.996078431372549" d="M 1519.5 1393 L 1518.5 1395 L 1519.5 1393 Z " /></svg>